# xmcd CD database file
#
# Track frame offsets:
#	150
#	18286
#	49708
#	84942
#	118300
#	153219
#
# Disc length: 2249 seconds
#
# Revision: 0
# Processed by: cddbd v1.5.1PL0 Copyright (c) Steve Scherf et al.
# Submitted via: CDex 1.51
#
DISCID=3c08c706
DTITLE=Angel One - Hold me tonight
DYEAR=1900
DGENRE=New Age
TTITLE0=Hold me tonight (Radio Version)
TTITLE1=Hold me tonight (Extended Mix)
TTITLE2=Hold me tonight (DJ Pontos Remix)
TTITLE3=Hold me tonight (Eniac Remix)
TTITLE4=Hold me tonight (Hennes and Cold Remix)
TTITLE5=Into your eyes (Radio Version)
EXTD=
EXTT0=
EXTT1=
EXTT2=
EXTT3=
EXTT4=
EXTT5=
PLAYORDER=
